# Blender 3.3.1
# www.blender.org
mtllib Grass_01.mtl
o grass
v 1.623848 7.824971 -2.633422
v 0.389648 5.285971 -2.701922
v 0.468250 5.285571 -3.070121
v -0.224552 1.630771 -2.699123
v -0.092751 1.630171 -3.316322
v -0.832150 -2.013329 -2.719822
v -0.657249 -2.014229 -3.538422
v -2.081451 -5.646529 -2.912126
v -1.877651 -5.647529 -3.866124
v -2.885551 11.376372 -4.069620
v -2.783253 7.127271 -4.285022
v -3.048950 7.130172 -4.625422
v -2.580353 2.866771 -4.301822
v -3.025551 2.871571 -4.872222
v -2.872250 -1.388629 -3.824223
v -3.462852 -1.382329 -4.580723
v -2.965549 -5.651129 -3.258225
v -3.726353 -5.642129 -4.103623
v -3.989151 7.212871 -0.025122
v -3.723652 3.980170 0.022278
v -3.966949 3.983171 0.247479
v -3.381351 0.755371 0.231777
v -3.789150 0.760470 0.609177
v -3.367550 -2.453530 0.117675
v -3.908550 -2.446630 0.618278
v -3.424152 -5.651330 -0.028726
v -4.054550 -5.643430 0.554675
v -4.305153 10.980270 -2.271921
v -4.384453 6.749771 -2.124522
v -4.488251 6.793271 -2.539321
v -4.694550 2.491571 -1.991523
v -4.868549 2.564471 -2.686824
v -4.436951 -1.623929 -2.025925
v -4.667850 -1.527129 -2.948223
v -4.099751 -5.703029 -2.119123
v -4.368752 -5.590329 -3.193925
v -3.956051 3.709472 -6.479824
v -3.584351 1.939571 -5.715721
v -3.833050 1.942172 -5.637924
v -3.383553 -0.596529 -5.350922
v -3.800251 -0.592029 -5.220425
v -3.199051 -3.124729 -4.982022
v -3.751850 -3.118829 -4.809021
v -2.899651 -5.651329 -4.168023
v -3.543953 -5.644429 -3.966424
v -0.247452 5.213770 6.979878
v -1.062752 3.154469 6.056477
v -0.744053 3.153270 5.856076
v -1.498451 0.191569 5.630978
v -0.964252 0.189469 5.295078
v -1.912750 -2.762430 5.193779
v -1.204052 -2.765230 4.748176
v -2.651451 -5.708930 4.176875
v -1.825649 -5.712130 3.657676
v -2.586853 8.085971 2.280378
v -2.518250 4.642670 2.051976
v -2.832352 4.645670 1.755879
v -2.320049 1.189770 2.004677
v -2.846451 1.194770 1.508377
v -2.535950 -2.259530 2.521076
v -3.234253 -2.252930 1.862678
v -2.542152 -5.714630 3.094577
v -3.422352 -5.705630 2.374274
v -4.578251 4.708770 3.942479
v -4.728752 2.090470 4.193779
v -4.864250 2.092570 3.891178
v -5.057449 -0.520330 4.465878
v -5.284550 -0.516830 3.958778
v -4.974350 -3.121130 4.530277
v -5.275650 -3.116530 3.857578
v -4.838051 -5.713430 4.538177
v -5.189053 -5.708130 3.754176
v -4.378853 7.764570 2.467477
v -4.545853 4.336070 2.478780
v -4.249950 4.371370 2.170079
v -4.823551 0.885170 2.286976
v -4.327553 0.944270 1.769676
v -4.657352 -2.450030 2.486778
v -3.999352 -2.371630 1.800476
v -4.398952 -5.755930 2.722674
v -3.632153 -5.664530 1.922877
v -1.045151 1.873170 -0.895523
v -0.769650 0.438371 -0.089424
v -1.025951 0.440670 -0.042522
v -0.614853 -1.617130 0.300575
v -1.044453 -1.613230 0.379078
v -0.476749 -3.666229 0.692478
v -1.046551 -3.661030 0.796577
v -0.279152 -5.714130 1.540275
v -0.943150 -5.708230 1.661574
v 3.913651 7.830972 -5.170722
v 3.281349 5.289071 -4.115623
v 2.989948 5.290571 -4.354022
v 2.993248 1.632371 -3.584022
v 2.504749 1.634671 -3.983623
v 2.687248 -2.013329 -3.068924
v 2.039349 -2.010129 -3.598923
v 1.935047 -5.648929 -2.061723
v 1.180050 -5.645229 -2.679425
v 0.582848 11.379070 -1.802721
v 0.426849 7.131271 -2.010623
v 0.002750 7.134871 -1.930121
v 0.493549 2.871371 -2.217121
v -0.217350 2.877470 -2.082222
v 0.773548 -1.386829 -1.757424
v -0.169453 -1.378729 -1.578423
v 1.222748 -5.651929 -1.434022
v 0.123051 -5.641329 -1.144223
v 1.837048 7.213470 0.248380
v 2.070549 3.980870 0.109776
v 2.021149 3.982970 0.437577
v 2.465248 0.755771 0.049679
v 2.382549 0.759370 0.599178
v 2.401447 -2.452630 -0.057724
v 2.291649 -2.447930 0.671176
v 2.262348 -5.650129 -0.146424
v 2.134449 -5.644629 0.702975
v 1.487049 10.980270 0.208479
v 1.581749 6.749770 0.346379
v 1.165447 6.793270 0.248979
v 1.558147 2.491570 0.683079
v 0.860348 2.564470 0.519677
v 1.645451 -1.623930 0.438278
v 0.719749 -1.527129 0.221576
v 1.716850 -5.703030 0.095775
v 0.638050 -5.590330 -0.156823
v -2.070351 3.717871 -1.986621
v -1.225452 1.945571 -1.975223
v -1.270050 1.947271 -1.718521
v -0.815849 -0.591429 -1.997822
v -0.890553 -0.588629 -1.567623
v -0.410152 -3.120729 -2.004124
v -0.509151 -3.117029 -1.433323
v 0.443951 -5.650029 -1.908822
v 0.328548 -5.645730 -1.243623
v 9.360550 5.204170 0.880177
v 8.160149 3.147270 1.173878
v 8.127750 3.147771 0.798779
v 7.573448 0.185270 1.353779
v 7.519150 0.186070 0.725079
v 6.986149 -2.767630 1.509475
v 6.914249 -2.766629 0.675476
v 5.735050 -5.711130 1.688476
v 5.651150 -5.709929 0.716575
v 4.376648 8.087670 1.176278
v 4.283051 4.645270 0.944478
v 3.852749 4.648870 0.909478
v 4.403748 1.192670 0.773079
v 3.682648 1.198770 0.714379
v 4.553249 -2.258430 1.300575
v 3.596649 -2.250330 1.222675
v 4.902050 -5.715430 1.741775
v 3.764748 -5.704930 1.729075
v 3.855350 4.709770 3.707780
v 3.891251 2.090570 3.989979
v 3.596447 2.093470 3.838276
v 3.801147 -0.521430 4.399677
v 3.307049 -0.516530 4.145477
v 3.902847 -3.122330 4.390075
v 3.247448 -3.115830 4.052875
v 4.010849 -5.714530 4.303176
v 3.247047 -5.707030 3.910174
v 3.075951 7.764570 2.399278
v 2.952648 4.336070 2.512379
v 2.990948 4.371370 2.086476
v 2.616051 0.885170 2.536076
v 2.680248 0.944270 1.822277
v 2.870647 -2.450030 2.588275
v 2.955750 -2.371630 1.641376
v 3.219749 -5.755930 2.611075
v 3.318951 -5.664530 1.507575
v 4.225449 1.883671 -2.027923
v 5.063850 0.445771 -1.910324
v 4.988251 0.447271 -1.660923
v 5.475250 -1.611129 -1.878422
v 5.348450 -1.608629 -1.460522
v 5.880650 -3.661629 -1.830723
v 5.712547 -3.658429 -1.276322
v 6.718750 -5.713029 -1.627423
v 6.522850 -5.709330 -0.981423
vn 0.6737 -0.7247 0.1447
vn 0.8254 -0.5362 0.1768
vn 0.8253 -0.5362 0.1768
vn 0.9190 -0.3417 0.1967
vn 0.8560 -0.4833 0.1834
vn 0.7779 -0.6059 0.1667
vn 0.7839 0.1060 -0.6118
vn 0.7848 0.0950 -0.6125
vn 0.7849 0.0936 -0.6126
vn 0.7844 -0.0991 -0.6123
vn 0.7845 -0.0966 -0.6125
vn 0.7557 -0.2518 -0.6046
vn 0.7618 -0.2567 -0.5948
vn 0.7239 -0.2258 -0.6519
vn 0.7351 -0.2329 -0.6367
vn -0.6717 -0.1489 -0.7257
vn -0.6647 -0.2068 -0.7180
vn -0.6758 -0.1010 -0.7301
vn -0.6775 0.0701 -0.7322
vn -0.6762 0.0936 -0.7308
vn 0.9692 0.0481 -0.2415
vn 0.9699 -0.0134 -0.2430
vn 0.9699 -0.0133 -0.2430
vn 0.9660 0.0977 -0.2395
vn 0.9368 0.2648 -0.2286
vn 0.9308 0.2866 -0.2267
vn -0.2091 -0.7191 -0.6627
vn -0.2549 -0.5272 -0.8106
vn -0.2826 -0.3300 -0.9007
vn -0.2617 -0.4735 -0.8410
vn -0.2641 -0.4735 -0.8403
vn -0.2406 -0.5981 -0.7644
vn 0.3648 -0.7227 0.5871
vn 0.4479 -0.5334 0.7175
vn 0.4480 -0.5334 0.7175
vn 0.4994 -0.3383 0.7976
vn 0.4648 -0.4804 0.7438
vn 0.4648 -0.4803 0.7438
vn 0.4218 -0.6034 0.6767
vn 0.6820 0.1077 -0.7234
vn 0.6828 0.0968 -0.7242
vn 0.6829 0.0956 -0.7242
vn 0.6826 -0.0973 -0.7243
vn 0.6828 -0.0948 -0.7244
vn 0.6556 -0.2501 -0.7125
vn 0.6631 -0.2550 -0.7038
vn 0.6170 -0.2240 -0.7544
vn 0.6304 -0.2312 -0.7410
vn 0.9016 -0.1556 -0.4036
vn 0.8917 -0.2134 -0.3991
vn 0.9074 -0.1077 -0.4062
vn 0.9108 0.0634 -0.4079
vn 0.9092 0.0869 -0.4072
vn 0.7216 0.0109 0.6922
vn 0.7219 -0.0499 0.6902
vn 0.7194 0.0602 0.6919
vn 0.6985 0.2291 0.6779
vn 0.6985 0.2291 0.6780
vn 0.6941 0.2514 0.6746
vn -0.1268 -0.7197 -0.6826
vn -0.1542 -0.5277 -0.8353
vn -0.1706 -0.3303 -0.9283
vn -0.1573 -0.4739 -0.8664
vn -0.1596 -0.4739 -0.8660
vn -0.1457 -0.5987 -0.7876
vn -0.1456 -0.5987 -0.7876
vn 0.4350 -0.7235 -0.5361
vn 0.5335 -0.5348 -0.6553
vn 0.5944 -0.3401 -0.7287
vn 0.5534 -0.4818 -0.6794
vn 0.5026 -0.6046 -0.6180
vn 0.5026 -0.6045 -0.6180
vn -0.1851 0.1107 -0.9765
vn -0.1853 0.0996 -0.9776
vn -0.1853 0.0984 -0.9777
vn -0.1859 -0.0945 -0.9780
vn -0.1859 -0.0918 -0.9783
vn -0.1927 -0.2472 -0.9496
vn -0.1810 -0.2521 -0.9506
vn -0.2490 -0.2210 -0.9429
vn -0.2305 -0.2282 -0.9460
vn -0.9780 -0.1474 -0.1476
vn -0.9677 -0.2052 -0.1462
vn -0.9677 -0.2053 -0.1462
vn -0.9839 -0.0995 -0.1484
vn -0.9863 0.0716 -0.1484
vn -0.9844 0.0951 -0.1481
vn 0.2287 0.0481 -0.9723
vn 0.2277 -0.0133 -0.9736
vn 0.2277 -0.0134 -0.9736
vn 0.2289 0.0977 -0.9685
vn 0.2253 0.2648 -0.9376
vn 0.2244 0.2866 -0.9314
vn -0.6868 -0.7168 -0.1205
vn -0.8388 -0.5244 -0.1465
vn -0.9311 -0.3267 -0.1621
vn -0.8689 -0.4705 -0.1540
vn -0.8693 -0.4705 -0.1517
vn -0.7914 -0.5955 -0.1384
vn 0.6868 -0.7245 -0.0589
vn 0.8413 -0.5357 -0.0724
vn 0.9367 -0.3408 -0.0806
vn 0.9367 -0.3407 -0.0806
vn 0.8726 -0.4826 -0.0751
vn 0.7929 -0.6055 -0.0681
vn 0.0809 0.1107 -0.9905
vn 0.0810 0.0997 -0.9917
vn 0.0810 0.0985 -0.9918
vn 0.0806 -0.0944 -0.9923
vn 0.0806 -0.0918 -0.9925
vn 0.0666 -0.2472 -0.9667
vn 0.0779 -0.2521 -0.9646
vn 0.0103 -0.2210 -0.9752
vn 0.0291 -0.2282 -0.9732
vn 0.4518 -0.1535 -0.8788
vn 0.4468 -0.2113 -0.8693
vn 0.4468 -0.2114 -0.8693
vn 0.4547 -0.1056 -0.8843
vn 0.4566 0.0655 -0.8873
vn 0.4558 0.0890 -0.8856
vn 0.9959 0.0109 0.0898
vn 0.9949 -0.0499 0.0881
vn 0.9940 0.0602 0.0909
vn 0.9689 0.2291 0.0932
vn 0.9634 0.2514 0.0933
vn -0.6671 -0.7169 -0.2026
vn -0.8149 -0.5242 -0.2473
vn -0.9045 -0.3264 -0.2744
vn -0.8438 -0.4702 -0.2586
vn -0.8445 -0.4702 -0.2563
vn -0.7688 -0.5953 -0.2334
vt 0.000000 0.500000
vt 0.250000 0.000000
vt 0.250000 1.000000
vt 0.500000 0.000000
vt 0.500000 1.000000
vt 0.750000 0.000000
vt 0.750000 1.000000
vt 1.000000 0.000000
vt 1.000000 1.000000
vt 0.000000 0.500000
vt 0.250000 0.000000
vt 0.250000 1.000000
vt 0.500000 0.000000
vt 0.500000 1.000000
vt 0.750000 0.000000
vt 0.750000 1.000000
vt 1.000000 0.000000
vt 1.000000 1.000000
vt 0.000000 0.500000
vt 0.250000 0.000000
vt 0.250000 1.000000
vt 0.500000 0.000000
vt 0.500000 1.000000
vt 0.750000 0.000000
vt 0.750000 1.000000
vt 1.000000 0.000000
vt 1.000000 1.000000
vt 0.000000 0.500000
vt 0.250000 0.000000
vt 0.250000 1.000000
vt 0.500000 0.000000
vt 0.500000 1.000000
vt 0.750000 0.000000
vt 0.750000 1.000000
vt 1.000000 0.000000
vt 1.000000 1.000000
vt 0.000000 0.500000
vt 0.250000 0.000000
vt 0.250000 1.000000
vt 0.500000 0.000000
vt 0.500000 1.000000
vt 0.750000 0.000000
vt 0.750000 1.000000
vt 1.000000 0.000000
vt 1.000000 1.000000
vt 0.000000 0.500000
vt 0.250000 0.000000
vt 0.250000 1.000000
vt 0.500000 0.000000
vt 0.500000 1.000000
vt 0.750000 0.000000
vt 0.750000 1.000000
vt 1.000000 0.000000
vt 1.000000 1.000000
vt 0.000000 0.500000
vt 0.250000 0.000000
vt 0.250000 1.000000
vt 0.500000 0.000000
vt 0.500000 1.000000
vt 0.750000 0.000000
vt 0.750000 1.000000
vt 1.000000 0.000000
vt 1.000000 1.000000
vt 0.000000 0.500000
vt 0.250000 0.000000
vt 0.250000 1.000000
vt 0.500000 0.000000
vt 0.500000 1.000000
vt 0.750000 0.000000
vt 0.750000 1.000000
vt 1.000000 0.000000
vt 1.000000 1.000000
vt 0.000000 0.500000
vt 0.250000 0.000000
vt 0.250000 1.000000
vt 0.500000 0.000000
vt 0.500000 1.000000
vt 0.750000 0.000000
vt 0.750000 1.000000
vt 1.000000 0.000000
vt 1.000000 1.000000
vt 0.000000 0.500000
vt 0.250000 0.000000
vt 0.250000 1.000000
vt 0.500000 0.000000
vt 0.500000 1.000000
vt 0.750000 0.000000
vt 0.750000 1.000000
vt 1.000000 0.000000
vt 1.000000 1.000000
vt 0.000000 0.500000
vt 0.250000 0.000000
vt 0.250000 1.000000
vt 0.500000 0.000000
vt 0.500000 1.000000
vt 0.750000 0.000000
vt 0.750000 1.000000
vt 1.000000 0.000000
vt 1.000000 1.000000
vt 0.000000 0.500000
vt 0.250000 0.000000
vt 0.250000 1.000000
vt 0.500000 0.000000
vt 0.500000 1.000000
vt 0.750000 0.000000
vt 0.750000 1.000000
vt 1.000000 0.000000
vt 1.000000 1.000000
vt 0.000000 0.500000
vt 0.250000 0.000000
vt 0.250000 1.000000
vt 0.500000 0.000000
vt 0.500000 1.000000
vt 0.750000 0.000000
vt 0.750000 1.000000
vt 1.000000 0.000000
vt 1.000000 1.000000
vt 0.000000 0.500000
vt 0.250000 0.000000
vt 0.250000 1.000000
vt 0.500000 0.000000
vt 0.500000 1.000000
vt 0.750000 0.000000
vt 0.750000 1.000000
vt 1.000000 0.000000
vt 1.000000 1.000000
vt 0.000000 0.500000
vt 0.250000 0.000000
vt 0.250000 1.000000
vt 0.500000 0.000000
vt 0.500000 1.000000
vt 0.750000 0.000000
vt 0.750000 1.000000
vt 1.000000 0.000000
vt 1.000000 1.000000
vt 0.000000 0.500000
vt 0.250000 0.000000
vt 0.250000 1.000000
vt 0.500000 0.000000
vt 0.500000 1.000000
vt 0.750000 0.000000
vt 0.750000 1.000000
vt 1.000000 0.000000
vt 1.000000 1.000000
vt 0.000000 0.500000
vt 0.250000 0.000000
vt 0.250000 1.000000
vt 0.500000 0.000000
vt 0.500000 1.000000
vt 0.750000 0.000000
vt 0.750000 1.000000
vt 1.000000 0.000000
vt 1.000000 1.000000
vt 0.000000 0.500000
vt 0.250000 0.000000
vt 0.250000 1.000000
vt 0.500000 0.000000
vt 0.500000 1.000000
vt 0.750000 0.000000
vt 0.750000 1.000000
vt 1.000000 0.000000
vt 1.000000 1.000000
vt 0.000000 0.500000
vt 0.250000 0.000000
vt 0.250000 1.000000
vt 0.500000 0.000000
vt 0.500000 1.000000
vt 0.750000 0.000000
vt 0.750000 1.000000
vt 1.000000 0.000000
vt 1.000000 1.000000
vt 0.000000 0.500000
vt 0.250000 0.000000
vt 0.250000 1.000000
vt 0.500000 0.000000
vt 0.500000 1.000000
vt 0.750000 0.000000
vt 0.750000 1.000000
vt 1.000000 0.000000
vt 1.000000 1.000000
s 1
usemtl 2
f 1/1/1 2/2/2 3/3/3
f 3/3/3 2/2/2 4/4/4 5/5/4
f 5/5/4 4/4/4 6/6/5 7/7/5
f 7/7/5 6/6/5 8/8/6 9/9/6
f 10/10/7 11/11/8 12/12/9
f 12/12/9 11/11/8 13/13/10 14/14/11
f 14/14/11 13/13/10 15/15/12 16/16/13
f 16/16/13 15/15/12 17/17/14 18/18/15
f 28/28/21 29/29/22 30/30/23
f 30/30/23 29/29/22 31/31/24 32/32/24
f 32/32/24 31/31/24 33/33/25 34/34/25
f 34/34/25 33/33/25 35/35/26 36/36/26
f 37/37/27 38/38/28 39/39/28
f 39/39/28 38/38/28 40/40/29 41/41/29
f 41/41/29 40/40/29 42/42/30 43/43/31
f 43/43/31 42/42/30 44/44/32 45/45/32
f 46/46/33 47/47/34 48/48/35
f 48/48/35 47/47/34 49/49/36 50/50/36
f 50/50/36 49/49/36 51/51/37 52/52/38
f 52/52/38 51/51/37 53/53/39 54/54/39
f 55/55/40 56/56/41 57/57/42
f 57/57/42 56/56/41 58/58/43 59/59/44
f 59/59/44 58/58/43 60/60/45 61/61/46
f 61/61/46 60/60/45 62/62/47 63/63/48
f 64/64/49 65/65/50 66/66/50
f 66/66/50 65/65/50 67/67/51 68/68/51
f 68/68/51 67/67/51 69/69/52 70/70/52
f 70/70/52 69/69/52 71/71/53 72/72/53
f 73/73/54 74/74/55 75/75/55
f 75/75/55 74/74/55 76/76/56 77/77/56
f 77/77/56 76/76/56 78/78/57 79/79/58
f 79/79/58 78/78/57 80/80/59 81/81/59
f 82/82/60 83/83/61 84/84/61
f 84/84/61 83/83/61 85/85/62 86/86/62
f 86/86/62 85/85/62 87/87/63 88/88/64
f 88/88/64 87/87/63 89/89/65 90/90/66
f 100/100/73 101/101/74 102/102/75
f 102/102/75 101/101/74 103/103/76 104/104/77
f 104/104/77 103/103/76 105/105/78 106/106/79
f 106/106/79 105/105/78 107/107/80 108/108/81
f 109/109/82 110/110/83 111/111/84
f 111/111/84 110/110/83 112/112/85 113/113/85
f 113/113/85 112/112/85 114/114/86 115/115/86
f 115/115/86 114/114/86 116/116/87 117/117/87
f 118/118/88 119/119/89 120/120/90
f 120/120/90 119/119/89 121/121/91 122/122/91
f 122/122/91 121/121/91 123/123/92 124/124/92
f 124/124/92 123/123/92 125/125/93 126/126/93
f 127/127/94 128/128/95 129/129/95
f 129/129/95 128/128/95 130/130/96 131/131/96
f 131/131/96 130/130/96 132/132/97 133/133/98
f 133/133/98 132/132/97 134/134/99 135/135/99
f 136/136/100 137/137/101 138/138/101
f 138/138/101 137/137/101 139/139/102 140/140/103
f 140/140/103 139/139/102 141/141/104 142/142/104
f 142/142/104 141/141/104 143/143/105 144/144/105
f 145/145/106 146/146/107 147/147/108
f 147/147/108 146/146/107 148/148/109 149/149/110
f 149/149/110 148/148/109 150/150/111 151/151/112
f 151/151/112 150/150/111 152/152/113 153/153/114
f 154/154/115 155/155/116 156/156/117
f 156/156/117 155/155/116 157/157/118 158/158/118
f 158/158/118 157/157/118 159/159/119 160/160/119
f 160/160/119 159/159/119 161/161/120 162/162/120
f 172/172/126 173/173/127 174/174/127
f 174/174/127 173/173/127 175/175/128 176/176/128
f 176/176/128 175/175/128 177/177/129 178/178/130
f 178/178/130 177/177/129 179/179/131 180/180/131
usemtl 1
f 19/19/16 20/20/17 21/21/17
f 21/21/17 20/20/17 22/22/18 23/23/18
f 23/23/18 22/22/18 24/24/19 25/25/19
f 25/25/19 24/24/19 26/26/20 27/27/20
f 91/91/67 92/92/68 93/93/68
f 93/93/68 92/92/68 94/94/69 95/95/69
f 95/95/69 94/94/69 96/96/70 97/97/70
f 97/97/70 96/96/70 98/98/71 99/99/72
f 163/163/121 164/164/122 165/165/122
f 165/165/122 164/164/122 166/166/123 167/167/123
f 167/167/123 166/166/123 168/168/124 169/169/124
f 169/169/124 168/168/124 170/170/125 171/171/125
